<?xml version="1.0" standalone="no"?>
<!DOCTYPE svg PUBLIC "-//W3C//DTD SVG 20010904//EN"
 "http://www.w3.org/TR/2001/REC-SVG-20010904/DTD/svg10.dtd">
<svg version="1.0" xmlns="http://www.w3.org/2000/svg"
 width="750.000000pt" height="750.000000pt" viewBox="0 0 750.000000 750.000000"
 preserveAspectRatio="xMidYMid meet">
<metadata>
Created by potrace 1.14, written by Peter Selinger 2001-2017
</metadata>
<g transform="translate(0.000000,750.000000) scale(0.100000,-0.100000)"
fill="#000000" stroke="none">
<path d="M6585 7351 c-27 -10 -90 -31 -140 -46 -49 -15 -144 -45 -210 -67 -66
-22 -140 -46 -165 -53 -48 -14 -114 -36 -195 -65 -27 -9 -90 -30 -140 -45 -49
-15 -106 -34 -125 -41 -19 -6 -116 -38 -215 -69 -99 -32 -202 -65 -230 -75
-84 -29 -148 -51 -195 -65 -25 -8 -90 -29 -145 -48 -55 -19 -120 -41 -145 -49
-151 -50 -709 -238 -730 -246 -14 -6 -78 -27 -143 -47 -96 -30 -121 -42 -134
-64 -25 -39 -101 -159 -145 -224 -21 -32 -38 -60 -38 -64 0 -3 -34 -56 -75
-118 -41 -62 -75 -116 -75 -119 0 -3 -20 -35 -45 -70 -25 -36 -45 -68 -45 -71
0 -3 -8 -18 -19 -33 -10 -15 -44 -66 -75 -114 -55 -85 -59 -88 -95 -88 -21 0
-60 7 -87 15 -27 8 -92 20 -144 25 -52 6 -109 15 -126 20 -17 6 -80 17 -140
25 -60 8 -145 21 -189 29 -199 37 -316 57 -395 66 -47 5 -101 14 -120 20 -19
6 -82 15 -140 21 -58 5 -127 16 -154 24 -27 8 -85 17 -130 21 -45 3 -110 12
-146 20 -39 9 -74 12 -86 7 -43 -16 -906 -863 -996 -976 -46 -58 -47 -79 -9
-118 l29 -29 621 0 620 0 31 -62 c16 -35 30 -71 30 -81 0 -10 9 -35 20 -57 11
-22 20 -49 20 -60 0 -12 9 -40 19 -63 11 -24 23 -56 27 -72 11 -45 153 -477
164 -500 6 -11 17 -42 24 -70 43 -150 98 -289 123 -309 15 -12 110 -76 212
-143 102 -67 213 -140 246 -163 52 -35 152 -101 204 -135 9 -6 34 -23 56 -38
72 -49 79 -54 139 -93 32 -21 66 -43 75 -49 9 -5 88 -58 176 -116 217 -144
561 -368 715 -467 100 -64 215 -138 244 -158 16 -10 36 -24 45 -29 9 -6 43
-28 76 -50 71 -47 80 -52 133 -85 22 -13 47 -36 55 -50 16 -27 12 -64 -20
-200 -26 -108 -42 -203 -43 -246 0 -44 19 -67 95 -115 22 -14 53 -34 69 -45
16 -10 36 -23 45 -29 9 -5 48 -31 86 -56 82 -54 312 -203 405 -264 133 -85
208 -134 320 -207 63 -41 147 -95 185 -120 39 -25 142 -92 230 -150 338 -220
316 -208 366 -208 48 0 71 15 83 55 3 11 -3 61 -15 110 -11 50 -28 131 -38
180 -11 50 -22 97 -26 106 -7 20 -40 163 -61 269 -8 41 -21 95 -28 120 -8 25
-17 61 -21 80 -6 36 -33 156 -60 270 -9 36 -25 107 -35 158 -10 51 -22 97 -25
102 -3 5 -12 42 -19 82 -13 69 -23 113 -66 288 -11 41 -27 111 -36 155 -20 96
-48 224 -62 285 -6 25 -22 92 -36 150 -14 58 -32 134 -41 170 -8 36 -22 97
-29 135 -7 39 -21 92 -30 118 -9 26 -16 58 -16 71 0 12 -7 45 -15 72 -9 27
-22 81 -29 119 -14 72 -33 154 -67 285 -11 41 -24 101 -29 132 -5 31 -16 77
-24 103 -9 25 -16 56 -16 69 0 13 -9 52 -20 87 -10 35 -24 94 -30 130 -5 37
-17 83 -25 102 -8 20 -15 51 -15 70 0 18 -7 57 -15 85 -13 41 -13 57 -4 74 7
13 506 516 1110 1118 730 729 1100 1104 1104 1122 9 34 -11 94 -33 103 -25 10
-242 6 -347 -6 -115 -12 -361 -28 -446 -29 -111 0 -112 5 -31 150 245 444 254
469 194 518 -22 17 -98 14 -157 -7z m-122 -256 c4 -8 -24 -67 -60 -132 -36
-65 -81 -145 -98 -178 -43 -79 -121 -220 -151 -270 -13 -22 -29 -51 -36 -65
-11 -23 -187 -339 -340 -612 -33 -59 -68 -121 -77 -137 -9 -17 -45 -83 -80
-148 -34 -64 -81 -146 -102 -181 -21 -35 -39 -66 -39 -68 0 -5 -310 -562 -330
-594 -6 -8 -19 -32 -30 -52 -27 -51 -68 -53 -99 -5 -33 53 -167 244 -246 352
-24 33 -74 103 -110 155 -36 52 -91 131 -122 175 -31 44 -75 107 -98 140 -22
33 -68 98 -100 145 -33 47 -81 117 -107 155 -27 39 -79 113 -116 166 -37 53
-87 125 -111 160 -25 35 -59 85 -78 111 -18 26 -33 50 -33 52 0 12 135 65 280
111 87 27 146 46 195 64 28 10 124 42 215 71 91 29 188 61 215 70 100 35 151
52 195 65 47 14 112 36 195 65 99 35 181 61 232 74 29 7 58 18 65 24 7 6 31
13 53 17 22 4 53 14 70 23 16 8 52 21 80 28 27 7 73 20 100 29 28 10 62 21 78
26 15 5 39 13 55 19 15 5 47 16 72 23 25 8 59 19 75 25 17 5 53 17 80 27 28 9
74 23 103 30 29 7 60 19 67 25 8 7 38 16 67 20 29 4 56 8 59 9 4 0 9 -6 12
-14z m595 -551 c22 -6 22 -7 6 -33 -9 -14 -77 -84 -150 -156 -74 -71 -399
-394 -724 -717 -324 -324 -596 -588 -604 -588 -8 0 -18 4 -21 10 -3 5 30 74
73 152 67 120 294 532 379 685 13 24 35 64 50 90 14 27 36 66 48 88 12 22 47
83 76 135 30 52 61 107 69 122 93 168 84 163 362 178 159 9 362 28 408 39 3 0
15 -2 28 -5z m-3305 -423 c15 -6 57 -55 103 -122 162 -231 195 -277 279 -399
47 -69 120 -172 160 -230 67 -95 135 -192 182 -260 10 -14 52 -72 93 -130 42
-58 83 -116 93 -130 9 -14 38 -56 65 -93 183 -263 191 -275 185 -296 -4 -14
-18 -24 -47 -32 -22 -6 -61 -18 -86 -26 -25 -8 -67 -21 -95 -28 -27 -8 -70
-21 -95 -29 -70 -24 -140 -46 -195 -61 -57 -16 -163 -51 -215 -70 -19 -7 -75
-25 -125 -40 -49 -15 -115 -35 -145 -45 -30 -9 -95 -30 -145 -45 -49 -15 -115
-35 -145 -45 -30 -10 -75 -24 -100 -30 -25 -6 -61 -17 -80 -24 -19 -8 -69 -24
-110 -36 -110 -32 -267 -79 -330 -100 -51 -16 -86 -27 -300 -90 -102 -30 -201
-62 -349 -110 -73 -24 -128 -37 -133 -32 -12 12 0 58 18 73 8 6 14 15 14 20 0
4 31 57 68 116 37 59 71 115 75 123 4 8 31 53 61 100 30 47 73 117 96 155 22
39 54 90 70 115 15 25 49 79 74 120 25 41 74 122 110 180 36 58 95 155 131
215 37 61 85 139 107 175 22 36 51 85 65 110 14 25 31 52 38 60 12 14 62 98
97 161 9 17 23 38 30 47 8 9 43 64 77 122 60 102 204 338 261 430 16 25 48 78
71 118 23 39 44 72 45 72 2 0 14 -4 27 -9z m-2203 -586 c41 -8 98 -16 125 -20
28 -4 93 -15 145 -25 52 -10 127 -22 165 -25 39 -4 95 -13 125 -20 30 -7 96
-18 145 -25 50 -6 115 -17 145 -25 30 -7 87 -16 126 -19 38 -3 92 -13 120 -21
27 -9 95 -19 151 -24 107 -9 176 -33 181 -62 2 -9 -23 -57 -55 -107 -32 -50
-67 -107 -78 -126 -40 -70 -246 -401 -317 -511 -44 -67 -95 -152 -130 -216 -9
-17 -23 -38 -31 -47 -7 -9 -28 -42 -46 -72 -18 -30 -45 -75 -61 -100 -28 -42
-38 -59 -93 -153 -23 -38 -76 -124 -131 -210 -29 -46 -31 -48 -46 -30 -8 11
-57 145 -108 299 -51 153 -108 326 -128 384 -19 58 -41 125 -49 150 -15 50
-38 118 -65 195 -27 75 -49 143 -70 210 -29 95 -50 156 -71 207 -10 26 -19 55
-19 65 0 10 -8 34 -19 53 -10 19 -22 51 -25 70 -4 19 -16 58 -26 85 -41 114
-42 119 -23 133 18 13 25 12 163 -13z m-352 -82 c6 -16 15 -41 20 -58 6 -16
23 -61 37 -100 36 -95 131 -383 139 -421 12 -56 16 -56 -449 -62 l-425 -5 0
25 c0 21 66 92 312 337 326 326 345 340 366 284z m3737 -1223 c3 -5 -1 -38
-11 -72 -9 -35 -24 -97 -34 -138 -31 -133 -92 -373 -110 -435 -10 -33 -21 -78
-25 -100 -3 -22 -14 -69 -25 -105 -26 -94 -49 -186 -64 -260 -7 -36 -20 -87
-28 -115 -23 -75 -60 -224 -69 -277 -4 -25 -14 -68 -22 -95 -19 -58 -45 -160
-59 -228 -5 -27 -19 -77 -29 -111 -10 -33 -19 -70 -19 -82 0 -26 -49 -182 -63
-199 -14 -18 -16 -17 -88 29 -91 59 -193 124 -274 176 -38 25 -100 66 -138 91
-37 25 -82 55 -101 66 -32 19 -132 85 -283 186 -40 27 -75 49 -77 49 -3 0 -25
14 -48 30 -53 38 -76 53 -298 195 -101 65 -259 168 -323 211 -105 70 -142 93
-162 104 -11 6 -36 22 -55 35 -19 14 -42 30 -50 35 -8 5 -65 43 -127 84 -62
40 -119 76 -128 80 -45 17 8 43 215 106 58 17 123 38 145 45 47 16 163 52 290
90 50 14 115 35 145 45 30 10 96 30 145 45 50 15 124 37 165 50 41 13 116 35
165 50 50 15 101 31 115 37 14 6 54 18 90 28 64 18 112 33 280 85 47 15 116
35 154 46 38 10 74 23 80 27 6 5 38 14 71 21 33 8 69 18 79 23 11 6 42 16 70
24 28 7 74 20 101 29 28 9 88 28 135 42 47 14 108 33 135 43 55 21 120 25 130
10z m174 -357 c7 -27 19 -74 27 -105 8 -32 21 -88 29 -125 16 -79 59 -270 73
-328 6 -22 22 -94 37 -160 14 -66 34 -156 45 -200 10 -44 30 -129 43 -190 14
-60 33 -141 42 -180 10 -38 23 -97 30 -130 7 -33 21 -91 30 -130 9 -38 27
-117 40 -175 13 -58 28 -127 35 -155 6 -27 18 -81 26 -120 8 -38 21 -95 29
-125 8 -30 22 -89 31 -130 9 -41 24 -111 34 -155 58 -258 74 -328 90 -400 10
-44 24 -107 33 -140 8 -33 27 -114 42 -180 15 -66 34 -150 43 -188 18 -77 12
-94 -32 -77 -26 9 -56 28 -316 198 -63 41 -144 94 -180 117 -168 108 -342 222
-407 266 -39 27 -74 49 -78 49 -4 0 -19 9 -33 21 -15 11 -92 63 -172 114 -229
148 -223 142 -215 192 3 23 15 67 26 97 10 31 19 69 19 85 0 17 8 52 19 78 10
26 21 71 25 98 4 28 16 76 27 108 10 31 19 68 19 82 0 14 9 50 19 80 10 29 22
73 26 97 3 24 14 72 24 108 10 36 23 88 29 115 6 28 23 97 37 155 15 58 35
141 45 185 10 44 26 107 35 140 24 88 53 206 60 240 7 36 40 166 65 255 10 36
21 83 25 105 3 22 15 69 25 105 10 36 23 85 29 110 5 25 17 70 25 100 8 30 17
72 21 93 4 27 13 41 28 46 30 12 32 9 46 -46z"/>
</g>
</svg>
